<?xml version="1.0" standalone="no"?>
<!DOCTYPE svg PUBLIC "-//W3C//DTD SVG 20010904//EN"
 "http://www.w3.org/TR/2001/REC-SVG-20010904/DTD/svg10.dtd">
<svg version="1.0" xmlns="http://www.w3.org/2000/svg"
 width="270.000000pt" height="187.000000pt" viewBox="0 0 270.000000 187.000000"
 preserveAspectRatio="xMidYMid meet">

<g transform="translate(0.000000,187.000000) scale(0.100000,-0.100000)"
fill="#000000" stroke="none">
<path d="M1334 1742 c-35 -25 -455 -310 -547 -371 -45 -30 -52 -21 114 -134
l125 -84 135 91 c74 50 145 98 157 107 23 16 22 16 -43 60 -36 23 -65 46 -65
49 0 16 161 122 176 116 31 -12 342 -230 338 -237 -3 -6 -194 -137 -561 -387
-29 -19 -53 -38 -53 -42 0 -9 117 -90 129 -90 6 0 41 22 78 48 66 47 227 157
523 357 80 54 150 103 157 109 9 8 -15 29 -100 87 -62 41 -203 137 -314 212
-110 75 -203 137 -206 137 -2 0 -22 -13 -43 -28z"/>
<path d="M1935 1719 c-38 -28 -98 -69 -132 -91 -35 -22 -63 -41 -63 -43 0 -8
130 -96 138 -93 4 1 35 23 70 47 l62 45 0 93 c0 51 -1 93 -2 92 -2 0 -34 -23
-73 -50z"/>
<path d="M1475 1406 c-16 -12 -133 -93 -260 -178 -126 -86 -270 -184 -320
-218 -49 -34 -102 -69 -117 -79 -16 -9 -28 -18 -28 -21 0 -3 55 -42 123 -87
67 -45 185 -125 262 -178 77 -53 164 -112 192 -131 l53 -35 172 118 c95 65
233 158 307 208 74 50 136 96 138 102 2 5 -57 51 -131 102 l-135 91 -138 -94
c-76 -52 -146 -100 -156 -108 -18 -12 -14 -17 47 -58 36 -25 66 -48 66 -51 0
-3 -38 -32 -85 -64 l-85 -58 -158 107 c-199 135 -199 135 -187 144 6 4 64 43
130 88 66 44 163 110 215 145 52 36 133 92 180 124 47 32 85 61 85 66 0 11
-113 89 -128 89 -7 0 -25 -11 -42 -24z"/>
<path d="M813 714 l-63 -45 0 -90 c0 -50 4 -89 8 -87 29 11 259 174 255 180
-6 12 -121 88 -130 88 -4 0 -36 -21 -70 -46z"/>
<path d="M150 245 l0 -125 75 0 c41 0 86 5 100 12 43 19 48 84 7 104 l-23 11
22 14 c29 20 29 67 -1 91 -17 14 -40 18 -101 18 l-79 0 0 -125z m124 82 c10
-7 16 -22 14 -33 -5 -26 -71 -28 -76 -1 -4 20 14 47 32 47 7 0 20 -6 30 -13z
m20 -120 c9 -15 7 -22 -13 -38 -44 -36 -78 -14 -64 42 4 16 12 19 36 17 16 -2
35 -11 41 -21z"/>
<path d="M1640 245 l0 -125 80 0 c73 0 83 3 105 25 37 36 29 80 -17 98 -9 3
-6 10 10 22 29 22 30 69 0 89 -16 11 -46 16 -100 16 l-78 0 0 -125z m133 75
c5 -4 7 -16 5 -26 -2 -14 -14 -20 -41 -22 -35 -3 -37 -2 -37 26 0 16 3 32 6
35 8 8 55 -2 67 -13z m8 -112 c10 -18 8 -24 -11 -40 -12 -10 -33 -18 -46 -18
-21 0 -24 4 -24 40 0 39 1 40 35 40 25 0 37 -6 46 -22z"/>
<path d="M805 305 c-20 -19 -25 -34 -25 -77 0 -29 6 -64 13 -78 26 -52 138
-46 145 8 3 18 -1 22 -21 22 -17 0 -26 -7 -30 -21 -9 -34 -41 -19 -51 24 -12
48 2 111 27 115 12 3 20 -4 24 -17 7 -28 53 -30 53 -2 0 50 -93 68 -135 26z"/>
<path d="M1001 318 c-29 -16 -40 -50 -36 -118 3 -59 15 -76 59 -84 47 -9 93
10 104 43 14 39 7 131 -11 148 -20 20 -87 26 -116 11z m79 -42 c11 -29 6 -114
-8 -128 -15 -15 -49 0 -56 25 -9 33 -7 72 4 101 12 34 47 35 60 2z"/>
<path d="M1443 320 c-31 -13 -43 -41 -43 -103 0 -76 22 -102 85 -102 65 0 85
26 85 109 0 33 -4 66 -8 72 -20 30 -75 41 -119 24z m66 -34 c19 -23 10 -127
-12 -140 -26 -16 -47 16 -47 72 0 70 29 104 59 68z"/>
<path d="M430 318 c0 -2 -16 -47 -34 -100 l-34 -98 24 0 c17 0 27 8 34 25 8
20 16 25 45 25 29 0 36 -4 41 -25 4 -18 13 -25 30 -25 13 0 24 5 24 10 0 6
-14 51 -31 100 -31 89 -32 90 -65 90 -19 0 -34 -1 -34 -2z m43 -65 c3 -16 9
-36 12 -45 6 -15 2 -18 -20 -18 -25 0 -27 2 -21 31 3 17 6 38 6 45 0 25 17 15
23 -13z"/>
<path d="M580 220 c0 -93 1 -100 20 -100 18 0 20 7 20 72 0 39 3 68 7 65 3 -4
19 -35 34 -70 26 -58 30 -62 63 -65 l36 -3 0 100 c0 94 -1 101 -20 101 -18 0
-20 -7 -20 -65 0 -36 -3 -65 -7 -65 -5 0 -21 30 -37 65 -27 61 -31 65 -62 65
l-34 0 0 -100z"/>
<path d="M1210 220 l0 -100 59 0 c85 0 105 19 106 98 0 84 -17 102 -102 102
l-63 0 0 -100z m100 65 c14 -16 18 -104 6 -123 -4 -7 -18 -12 -32 -12 -23 0
-24 2 -24 75 0 67 2 75 19 75 10 0 24 -7 31 -15z"/>
<path d="M1870 220 l0 -100 25 0 c25 0 25 1 25 90 0 93 3 100 44 84 24 -9 20
-55 -4 -61 -25 -7 -25 -4 5 -63 24 -48 27 -50 68 -50 34 0 44 4 52 22 7 16 20
24 43 26 27 3 34 -1 42 -22 9 -25 13 -26 89 -26 59 0 84 4 95 16 31 31 17 68
-36 95 -66 33 -61 69 10 69 17 0 32 5 32 10 0 16 -116 12 -129 -4 -25 -30 -9
-68 39 -96 59 -35 59 -54 -1 -58 -45 -3 -47 -2 -61 35 -8 21 -21 59 -29 86
-13 45 -15 47 -50 47 l-36 0 -27 -85 c-15 -47 -31 -85 -35 -85 -5 0 -14 14
-21 30 -11 26 -10 33 4 49 19 21 21 62 4 79 -7 7 -40 12 -80 12 l-68 0 0 -100z
m275 3 c6 -31 5 -33 -20 -33 -23 0 -25 3 -20 23 4 12 9 30 12 41 7 23 19 10
28 -31z"/>
<path d="M2390 220 l0 -100 25 0 25 0 0 100 0 100 -25 0 -25 0 0 -100z"/>
<path d="M2480 220 l0 -100 66 0 c48 0 65 3 62 13 -3 6 -20 14 -39 17 l-34 5
-3 83 c-3 80 -3 82 -27 82 -25 0 -25 0 -25 -100z"/>
</g>
</svg>
