<?xml version="1.0" standalone="no"?>
<!DOCTYPE svg PUBLIC "-//W3C//DTD SVG 20010904//EN"
 "http://www.w3.org/TR/2001/REC-SVG-20010904/DTD/svg10.dtd">
<svg version="1.0" xmlns="http://www.w3.org/2000/svg"
 width="225.000000pt" height="225.000000pt" viewBox="0 0 225.000000 225.000000"
 preserveAspectRatio="xMidYMid meet">

<g transform="translate(0.000000,225.000000) scale(0.100000,-0.100000)"
fill="#000000" stroke="none">
<path d="M1450 1215 l0 -305 65 0 65 0 0 35 c0 40 9 44 28 14 17 -26 87 -58
130 -59 37 0 97 23 125 48 42 37 61 93 61 177 1 70 -3 86 -26 127 -38 63 -80
88 -152 88 -60 0 -86 -9 -123 -43 l-23 -20 0 121 0 122 -75 0 -75 0 0 -305z
m279 10 c37 -19 55 -64 48 -122 -10 -88 -89 -122 -148 -64 -24 25 -29 37 -29
78 1 55 17 90 51 109 31 17 44 17 78 -1z"/>
<path d="M146 1335 c-77 -27 -126 -107 -126 -205 0 -184 178 -284 310 -174
l30 26 0 -32 c0 -46 -27 -90 -65 -106 -43 -18 -118 -17 -170 1 -22 8 -41 15
-42 15 0 0 -3 -25 -5 -54 l-3 -55 42 -10 c62 -16 203 -14 254 4 55 20 77 40
100 90 16 35 19 68 19 273 l0 232 -65 0 -65 0 0 -41 0 -42 -22 28 c-24 31 -91
65 -128 64 -14 0 -42 -6 -64 -14z m171 -117 c31 -25 45 -75 33 -118 -20 -75
-93 -102 -147 -56 -25 22 -28 31 -28 86 0 56 3 64 29 87 23 20 37 24 64 20 18
-4 41 -12 49 -19z"/>
<path d="M1325 1015 c-33 -32 -32 -68 1 -94 32 -25 52 -26 82 -5 15 10 22 25
22 47 0 38 -7 50 -37 66 -31 16 -41 14 -68 -14z"/>
</g>
</svg>
