<?xml version="1.0" standalone="no"?>
<!DOCTYPE svg PUBLIC "-//W3C//DTD SVG 20010904//EN"
 "http://www.w3.org/TR/2001/REC-SVG-20010904/DTD/svg10.dtd">
<svg version="1.0" xmlns="http://www.w3.org/2000/svg"
 width="311.000000pt" height="162.000000pt" viewBox="0 0 311.000000 162.000000"
 preserveAspectRatio="xMidYMid meet">

<g transform="translate(0.000000,162.000000) scale(0.100000,-0.100000)"
fill="#000000" stroke="none">
<path d="M1457 1415 c-72 -27 -145 -92 -181 -162 -24 -48 -20 -54 27 -33 23
10 76 26 117 35 41 9 80 18 86 20 7 2 17 26 24 53 6 28 17 58 25 68 12 17 15
17 53 -9 22 -14 55 -44 72 -65 27 -34 38 -40 82 -45 85 -10 105 -45 72 -128
-14 -34 -15 -47 -5 -81 16 -51 7 -62 -9 -13 l-12 37 -22 -38 -22 -39 56 -10
c70 -13 74 -7 75 100 0 66 -5 90 -27 137 -35 75 -104 141 -174 167 -65 25
-178 27 -237 6z"/>
<path d="M1586 1328 c-23 -33 -21 -52 7 -44 12 3 35 6 51 6 29 0 29 0 10 21
-34 37 -51 41 -68 17z"/>
<path d="M1603 1252 l-52 -3 -36 -69 -35 -70 28 -52 c30 -59 16 -55 149 -42
62 5 62 6 93 56 36 58 35 75 -9 135 -32 44 -50 50 -138 45z"/>
<path d="M1761 1213 c32 -54 36 -57 42 -33 4 15 -2 30 -18 46 -36 36 -50 29
-24 -13z"/>
<path d="M1410 1224 c-71 -19 -141 -62 -159 -98 -29 -60 20 -189 100 -260 67
-61 120 -81 219 -81 105 0 170 26 230 91 46 50 48 58 18 78 -52 33 -78 24
-150 -48 -81 -83 -96 -83 -122 -3 l-19 58 -53 -7 c-57 -7 -104 11 -104 40 0 8
16 44 36 81 32 61 34 69 20 84 -9 10 -16 22 -16 27 1 5 9 -1 20 -14 l19 -23
25 38 c14 21 26 41 26 45 0 11 -27 9 -90 -8z"/>
<path d="M1450 1055 c-6 -19 -9 -39 -5 -45 6 -10 65 -14 65 -5 0 9 -40 85 -44
85 -3 0 -10 -16 -16 -35z"/>
<path d="M1613 972 c-35 -2 -63 -6 -63 -10 0 -18 33 -52 50 -52 19 0 90 55 80
62 -3 2 -33 2 -67 0z"/>
<path d="M579 673 c-42 -108 -48 -127 -44 -131 7 -7 25 9 25 24 0 10 12 14 39
14 31 0 41 -4 46 -20 6 -19 35 -29 35 -12 -1 4 -13 38 -28 77 -31 78 -55 94
-73 48z m40 -43 c9 -28 8 -30 -15 -30 -26 0 -27 3 -18 38 9 30 20 28 33 -8z"/>
<path d="M720 620 l0 -80 50 0 c28 0 50 5 50 10 0 6 -16 10 -35 10 l-35 0 0
70 c0 56 -3 70 -15 70 -12 0 -15 -16 -15 -80z"/>
<path d="M860 620 l0 -80 43 0 c65 0 86 31 46 68 -17 17 -18 20 -5 25 21 8 21
53 0 61 -9 3 -31 6 -50 6 l-34 0 0 -80z m65 35 c0 -11 -8 -21 -17 -23 -14 -3
-18 3 -18 23 0 20 4 26 18 23 9 -2 17 -12 17 -23z m5 -60 c15 -18 5 -35 -21
-35 -14 0 -19 7 -19 25 0 28 21 33 40 10z"/>
<path d="M1010 620 l0 -80 50 0 c28 0 50 5 50 10 0 6 -16 10 -35 10 -31 0 -35
3 -35 25 0 20 5 25 25 25 14 0 25 5 25 10 0 6 -11 10 -25 10 -20 0 -25 5 -25
25 0 22 4 25 35 25 19 0 35 5 35 10 0 6 -22 10 -50 10 l-50 0 0 -80z"/>
<path d="M1150 620 c0 -64 3 -80 15 -80 10 0 15 11 15 35 0 19 4 35 9 35 5 0
19 -16 31 -35 13 -21 30 -35 41 -35 19 0 18 3 -7 35 -25 33 -26 37 -10 54 35
39 12 71 -51 71 l-43 0 0 -80z m77 44 c4 -11 -1 -22 -12 -30 -28 -21 -35 -17
-35 16 0 23 4 30 20 30 11 0 23 -7 27 -16z"/>
<path d="M1300 690 c0 -5 14 -10 30 -10 l30 0 0 -70 c0 -56 3 -70 15 -70 12 0
15 14 15 70 l0 70 30 0 c17 0 30 5 30 10 0 6 -32 10 -75 10 -43 0 -75 -4 -75
-10z"/>
<path d="M1560 620 l0 -80 50 0 c28 0 50 5 50 10 0 6 -16 10 -35 10 -31 0 -35
3 -35 25 0 21 5 25 30 25 17 0 30 5 30 10 0 6 -13 10 -30 10 -25 0 -30 4 -30
25 0 22 4 25 35 25 19 0 35 5 35 10 0 6 -22 10 -50 10 l-50 0 0 -80z"/>
<path d="M1700 620 c0 -64 3 -80 15 -80 12 0 15 16 15 80 0 64 -3 80 -15 80
-12 0 -15 -16 -15 -80z"/>
<path d="M1781 620 c-1 -65 1 -80 13 -80 11 0 16 14 18 52 l3 51 35 -51 c41
-61 66 -68 63 -20 -1 18 -2 54 -2 81 -1 66 -19 59 -23 -9 l-3 -56 -35 54 c-53
81 -67 76 -69 -22z"/>
<path d="M1973 693 c-7 -2 -13 -17 -13 -33 0 -22 8 -33 36 -49 45 -27 43 -57
-4 -55 -18 1 -32 -2 -32 -7 0 -15 44 -21 73 -10 21 8 27 17 27 40 0 23 -8 34
-35 51 -44 27 -46 50 -5 50 17 0 30 5 30 10 0 10 -55 13 -77 3z"/>
<path d="M2080 690 c0 -5 14 -10 30 -10 l30 0 0 -70 c0 -56 3 -70 15 -70 12 0
15 14 15 70 l0 70 30 0 c17 0 30 5 30 10 0 6 -32 10 -75 10 -43 0 -75 -4 -75
-10z"/>
<path d="M2269 693 c0 -5 -2 -41 -3 -80 l-3 -73 54 0 c29 0 53 5 53 10 0 6
-16 10 -35 10 -31 0 -35 3 -35 25 0 20 5 25 25 25 14 0 25 5 25 10 0 6 -11 10
-25 10 -20 0 -25 5 -25 25 0 22 4 25 36 25 21 0 33 4 29 10 -7 12 -95 14 -96
3z"/>
<path d="M2410 620 c0 -64 3 -80 15 -80 12 0 15 16 15 80 0 64 -3 80 -15 80
-12 0 -15 -16 -15 -80z"/>
<path d="M2490 620 c0 -47 4 -80 10 -80 6 0 10 23 10 50 0 28 3 50 8 50 4 0
22 -23 41 -50 49 -73 61 -67 61 30 0 91 -17 109 -22 23 l-3 -57 -39 57 c-55
80 -66 76 -66 -23z"/>
<path d="M360 410 c0 -47 4 -80 10 -80 6 0 10 18 10 40 l0 40 40 0 40 0 0 -40
c0 -22 5 -40 10 -40 6 0 10 33 10 80 0 47 -4 80 -10 80 -5 0 -10 -16 -10 -35
0 -34 -1 -35 -40 -35 -39 0 -40 1 -40 35 0 19 -4 35 -10 35 -6 0 -10 -33 -10
-80z"/>
<path d="M2672 463 c-5 -16 -19 -52 -31 -80 -21 -53 -15 -76 7 -28 9 19 19 25
45 25 26 0 36 -6 45 -25 16 -35 35 -33 21 3 -6 15 -20 51 -31 80 -22 58 -41
66 -56 25z m42 -50 c6 -20 4 -23 -18 -23 -29 0 -31 6 -15 47 11 30 19 24 33
-24z"/>
<path d="M582 438 c-17 -17 -15 -74 4 -92 8 -9 24 -16 35 -16 24 0 59 34 59
58 0 23 -28 62 -43 62 -7 0 -4 -5 6 -11 20 -12 23 -69 5 -87 -18 -18 -46 -14
-58 7 -16 31 -12 59 12 75 16 11 18 16 7 16 -8 0 -20 -5 -27 -12z"/>
<path d="M747 443 c-15 -14 -6 -40 18 -53 14 -7 25 -22 25 -33 0 -15 -5 -18
-25 -15 -14 3 -25 1 -25 -3 0 -13 44 -11 58 3 18 18 15 26 -20 59 -28 25 -30
31 -18 39 8 5 10 10 4 10 -6 0 -14 -3 -17 -7z"/>
<path d="M877 443 c-11 -10 -8 -101 3 -108 6 -3 10 5 10 18 0 18 7 27 24 31
46 11 43 66 -3 66 -15 0 -31 -3 -34 -7z m51 -25 c-5 -34 -38 -37 -38 -4 0 20
5 26 21 26 15 0 20 -5 17 -22z"/>
<path d="M1013 390 c0 -36 2 -50 4 -32 2 17 2 47 0 65 -2 17 -4 3 -4 -33z"/>
<path d="M1098 443 c20 -4 22 -10 22 -59 0 -30 5 -54 10 -54 6 0 10 24 10 54
0 49 2 55 23 59 12 2 -3 4 -33 4 -30 0 -45 -2 -32 -4z"/>
<path d="M1252 393 c-12 -31 -19 -59 -16 -62 3 -3 7 5 11 17 8 31 56 30 72 0
11 -23 11 -23 6 3 -7 38 -34 99 -44 99 -4 0 -18 -26 -29 -57z m44 -10 c-2 -3
-11 -3 -19 -1 -11 2 -12 9 -5 28 l10 25 9 -24 c5 -13 7 -26 5 -28z"/>
<path d="M1402 393 l-2 -63 33 1 c29 2 30 2 5 6 -25 4 -27 8 -31 61 l-3 57 -2
-62z"/>
<path d="M1623 390 c0 -36 2 -50 4 -32 2 17 2 47 0 65 -2 17 -4 3 -4 -33z"/>
<path d="M1703 434 c-4 -12 4 -26 27 -44 37 -30 33 -55 -6 -47 -13 2 -24 0
-24 -4 0 -10 31 -12 54 -3 26 10 18 41 -15 65 -31 22 -30 33 6 42 15 3 13 5
-8 6 -17 1 -30 -5 -34 -15z"/>
<path d="M1841 388 c1 -35 4 -51 6 -35 2 15 9 27 14 27 6 0 21 -12 35 -27 21
-23 23 -24 15 -6 -6 12 -16 25 -22 28 -7 5 -4 13 7 26 23 26 11 49 -26 49
l-30 0 1 -62z m49 33 c0 -10 -7 -22 -16 -25 -23 -9 -24 -8 -24 19 0 18 5 25
20 25 13 0 20 -7 20 -19z"/>
<path d="M1993 393 c-23 -57 -25 -83 -3 -44 14 27 47 27 71 -1 18 -22 18 -20
-2 31 -34 90 -36 91 -66 14z m43 -10 c-2 -3 -11 -3 -19 -1 -11 2 -12 9 -5 28
l10 25 9 -24 c5 -13 7 -26 5 -28z"/>
<path d="M2140 390 l0 -60 38 1 c36 1 36 2 7 8 -42 9 -48 48 -8 54 l28 4 -27
2 c-21 1 -28 6 -28 20 0 14 8 21 28 24 25 4 25 4 -5 6 l-33 1 0 -60z"/>
<path d="M2270 390 l0 -60 38 1 c36 1 36 2 7 8 -29 6 -30 9 -30 59 1 28 -3 52
-7 52 -4 0 -8 -27 -8 -60z"/>
<path d="M2403 390 c0 -36 2 -50 4 -32 2 17 2 47 0 65 -2 17 -4 3 -4 -33z"/>
<path d="M2492 443 c25 -4 27 -8 31 -61 l3 -57 2 57 c2 50 5 57 25 61 12 2 -3
4 -33 4 -30 0 -43 -2 -28 -4z"/>
</g>
</svg>
