<?xml version="1.0" standalone="no"?>
<!DOCTYPE svg PUBLIC "-//W3C//DTD SVG 20010904//EN"
 "http://www.w3.org/TR/2001/REC-SVG-20010904/DTD/svg10.dtd">
<svg version="1.0" xmlns="http://www.w3.org/2000/svg"
 width="225.000000pt" height="225.000000pt" viewBox="0 0 225.000000 225.000000"
 preserveAspectRatio="xMidYMid meet">

<g transform="translate(0.000000,225.000000) scale(0.100000,-0.100000)"
fill="#000000" stroke="none">
<path d="M0 1125 l0 -1125 1125 0 1125 0 0 1125 0 1125 -1125 0 -1125 0 0
-1125z m267 269 c-3 -3 -12 -4 -19 -1 -8 3 -5 6 6 6 11 1 17 -2 13 -5z m495
-18 c16 -9 30 -11 33 -5 4 5 22 9 41 9 l35 0 -3 -132 c-3 -130 -3 -133 -26
-136 -13 -2 -29 2 -37 8 -10 8 -19 8 -34 1 -46 -25 -135 -7 -164 33 -16 23
-28 91 -22 122 7 38 48 92 79 104 32 13 68 11 98 -4z m303 0 c21 -9 35 -11 35
-5 0 6 17 9 38 7 l37 -3 0 -140 c0 -120 -3 -145 -19 -171 -36 -59 -134 -82
-211 -50 -40 17 -39 16 -23 51 10 22 16 25 42 18 69 -16 126 1 126 38 0 24
-26 15 -33 -12 -3 -10 -11 -19 -19 -18 -10 0 -10 2 0 6 26 10 10 23 -28 23
-27 0 -54 9 -80 26 -22 15 -40 29 -40 31 0 2 4 1 10 -2 6 -3 7 1 4 9 -3 9 -9
14 -13 12 -14 -9 5 112 22 138 19 28 67 55 100 56 10 0 33 -7 52 -14z m310 -2
c19 -10 31 -11 33 -5 2 6 19 11 37 11 l34 0 3 -130 c3 -139 3 -140 -48 -140
-15 0 -24 6 -24 15 0 14 -3 13 -25 -1 -35 -23 -100 -21 -133 3 -39 29 -52 60
-52 125 0 50 4 62 30 92 41 46 93 57 145 30z m-1016 -39 c13 -24 28 -42 34
-38 5 3 7 1 4 -5 -4 -5 -4 -18 -1 -27 6 -14 10 -12 25 12 11 15 17 34 14 41
-3 7 -1 10 5 7 5 -3 16 8 25 25 13 24 22 30 49 30 32 0 34 -2 40 -46 3 -26 6
-64 6 -85 0 -21 3 -40 8 -43 4 -2 6 -25 4 -50 l-4 -46 -39 0 -39 0 0 49 c0 82
-9 89 -41 34 -16 -26 -29 -42 -29 -35 0 7 -4 11 -9 8 -17 -11 -42 6 -61 43
l-19 36 -1 -30 c-2 -34 -8 -74 -15 -92 -5 -14 -61 -18 -68 -5 -5 8 11 228 18
250 3 6 19 12 37 12 29 0 36 -6 57 -45z m1233 -47 l3 -93 60 -5 60 -5 0 -35 0
-35 -78 0 c-74 0 -80 2 -103 28 -22 26 -24 37 -24 126 0 54 3 101 7 104 3 4
21 7 39 7 l33 0 3 -92z m218 10 c0 -86 14 -118 50 -118 34 0 49 32 52 115 l3
80 38 3 37 3 1 -83 c0 -46 2 -99 3 -118 5 -56 -2 -70 -35 -70 -17 0 -32 6 -35
15 -5 13 -8 13 -21 0 -21 -22 -90 -23 -128 -2 -11 6 -22 11 -25 10 -8 -2 -11
20 -16 140 l-5 107 40 0 41 0 0 -82z m167 -214 c-3 -3 -12 -4 -19 -1 -8 3 -5
6 6 6 11 1 17 -2 13 -5z m-1472 -155 c-16 -3 -23 -7 -15 -8 13 -1 13 -2 0 -11
-13 -9 -13 -11 0 -20 13 -9 13 -10 0 -10 -13 0 -13 -1 0 -10 10 -7 -27 -9
-115 -8 -128 3 -130 3 -133 26 -8 51 -3 53 150 50 82 -1 130 -5 113 -9z m1489
-29 l0 -35 -195 -3 c-196 -3 -302 4 -265 17 17 7 17 8 2 23 -9 9 -16 19 -16
22 0 9 83 13 280 12 l195 -1 -1 -35z"/>
<path d="M682 1298 c-5 -7 -13 -24 -17 -37 -5 -18 -4 -22 5 -16 9 5 11 4 6 -4
-12 -18 3 -54 18 -42 8 7 17 6 26 -1 12 -8 12 -9 -2 -4 -10 3 -18 1 -18 -4 0
-13 36 -13 60 0 27 14 35 65 16 95 -12 18 -25 25 -50 25 -18 0 -38 -6 -44 -12z"/>
<path d="M987 1292 c-50 -55 16 -128 84 -92 22 12 27 78 7 98 -18 18 -73 14
-91 -6z"/>
<path d="M1298 1296 c-11 -8 -18 -27 -18 -48 0 -61 59 -89 100 -48 56 56 -19
144 -82 96z"/>
</g>
</svg>
